<?xml version="1.0" encoding="UTF-8" standalone="no"?>
<!DOCTYPE svg PUBLIC "-//W3C//DTD SVG 1.1//EN"
 "http://www.w3.org/Graphics/SVG/1.1/DTD/svg11.dtd">
<!-- Generated by graphviz version 2.36.0 (20140111.2315)
 -->
<!-- Title: domain_glossary_history Pages: 1 -->
<svg width="1084pt" height="626pt"
 viewBox="0.00 0.00 1084.00 626.00" xmlns="http://www.w3.org/2000/svg" xmlns:xlink="http://www.w3.org/1999/xlink">
<g id="graph0" class="graph" transform="scale(1 1) rotate(0) translate(4 622)">
<title>domain_glossary_history</title>
<g id="a_graph0"><a xlink:href="images/generated/history/domain.svg" xlink:title="История">
<polygon fill="white" stroke="none" points="-4,4 -4,-622 1080,-622 1080,4 -4,4"/>
<text text-anchor="middle" x="1035" y="-9.6" font-family="Times,serif" font-size="18.00" fill="#0000cc">История</text>
</a>
</g>
<!-- glossary_history_Resource -->
<g id="node1" class="node"><title>glossary_history_Resource</title>
<g id="a_node1_0"><a xlink:href="#history:Resource" xlink:title="Resource">
<polygon fill="#dddddd" stroke="none" points="874,-322 874,-346 1057,-346 1057,-322 874,-322"/>
<polygon fill="none" stroke="black" points="874,-322 874,-346 1057,-346 1057,-322 874,-322"/>
<text text-anchor="start" x="945" y="-330.3" font-family="Times,serif" font-size="14.00" fill="#0000cc">Ресурс</text>
</a>
</g>
<g id="a_node1_1"><a xlink:href="#history:Resource:URI" xlink:title="&lt;TABLE&gt;">
<polygon fill="#ffffff" stroke="none" points="874,-299 874,-322 1057,-322 1057,-299 874,-299"/>
<polygon fill="none" stroke="black" points="874,-299 874,-322 1057,-322 1057,-299 874,-299"/>
<text text-anchor="start" x="878.5" y="-306.8" font-family="Times,serif" font-size="14.00" fill="#3c3c3c">glossary:history:Resource:URI</text>
</a>
</g>
<polygon fill="none" stroke="black" points="872.5,-298.5 872.5,-347.5 1057.5,-347.5 1057.5,-298.5 872.5,-298.5"/>
</g>
<!-- glossary_history_Union -->
<g id="node2" class="node"><title>glossary_history_Union</title>
<g id="a_node2_2"><a xlink:href="#history:Union" xlink:title="Union">
<polygon fill="#dddddd" stroke="none" points="616,-593 616,-617 801,-617 801,-593 616,-593"/>
<polygon fill="none" stroke="black" points="616,-593 616,-617 801,-617 801,-593 616,-593"/>
<text text-anchor="start" x="669" y="-601.3" font-family="Times,serif" font-size="14.00" fill="#0000cc">Объединение</text>
</a>
</g>
<g id="a_node2_3"><a xlink:href="#history:Union:UUID" xlink:title="&lt;TABLE&gt;">
<polygon fill="#ffffff" stroke="none" points="616,-570 616,-593 801,-593 801,-570 616,-570"/>
<polygon fill="none" stroke="black" points="616,-570 616,-593 801,-593 801,-570 616,-570"/>
<text text-anchor="start" x="624.5" y="-577.8" font-family="Times,serif" font-size="14.00" fill="#3c3c3c">glossary:history:Union:UUID</text>
</a>
</g>
<g id="a_node2_4"><a xlink:href="#history:Union:dtOpen" xlink:title="&lt;TABLE&gt;">
<polygon fill="#ffffff" stroke="none" points="616,-547 616,-570 801,-570 801,-547 616,-547"/>
<polygon fill="none" stroke="black" points="616,-547 616,-570 801,-570 801,-547 616,-547"/>
<text text-anchor="start" x="621.5" y="-554.8" font-family="Times,serif" font-size="14.00" fill="#3c3c3c">glossary:history:Union:dtOpen</text>
</a>
</g>
<g id="a_node2_5"><a xlink:href="#history:Union:dtClose" xlink:title="&lt;TABLE&gt;">
<polygon fill="#ffffff" stroke="none" points="616,-524 616,-547 801,-547 801,-524 616,-524"/>
<polygon fill="none" stroke="black" points="616,-524 616,-547 801,-547 801,-524 616,-524"/>
<text text-anchor="start" x="620.5" y="-531.8" font-family="Times,serif" font-size="14.00" fill="#3c3c3c">glossary:history:Union:dtClose</text>
</a>
</g>
<g id="a_node2_6"><a xlink:href="#history:Union:mission" xlink:title="&lt;TABLE&gt;">
<polygon fill="#ffffff" stroke="none" points="616,-501 616,-524 801,-524 801,-501 616,-501"/>
<polygon fill="none" stroke="black" points="616,-501 616,-524 801,-524 801,-501 616,-501"/>
<text text-anchor="start" x="620.5" y="-508.8" font-family="Times,serif" font-size="14.00" fill="#3c3c3c">glossary:history:Union:mission</text>
</a>
</g>
<polygon fill="none" stroke="black" points="614.5,-500 614.5,-618 801.5,-618 801.5,-500 614.5,-500"/>
</g>
<!-- glossary_history_Union&#45;&gt;glossary_history_Resource -->
<g id="edge6" class="edge"><title>glossary_history_Union:glossary_history_Union&#45;&gt;glossary_history_Resource</title>
<path fill="none" stroke="black" d="M802,-605C852.885,-605 829.159,-547.409 854,-503 883.256,-450.699 920.054,-391.717 942.799,-355.963"/>
<polygon fill="none" stroke="black" points="945.839,-357.705 948.266,-347.392 939.937,-353.941 945.839,-357.705"/>
</g>
<!-- glossary_history_HistoryName -->
<g id="node6" class="node"><title>glossary_history_HistoryName</title>
<g id="a_node6_7"><a xlink:href="#history:HistoryName" xlink:title="HistoryName">
<polygon fill="#dddddd" stroke="none" points="856,-581 856,-605 1075,-605 1075,-581 856,-581"/>
<polygon fill="none" stroke="black" points="856,-581 856,-605 1075,-605 1075,-581 856,-581"/>
<text text-anchor="start" x="880.5" y="-589.3" font-family="Times,serif" font-size="14.00" fill="#0000cc">Историческое наименование</text>
</a>
</g>
<g id="a_node6_8"><a xlink:href="#history:HistoryName:name" xlink:title="&lt;TABLE&gt;">
<polygon fill="#ffffff" stroke="none" points="856,-558 856,-581 1075,-581 1075,-558 856,-558"/>
<polygon fill="none" stroke="black" points="856,-558 856,-581 1075,-581 1075,-558 856,-558"/>
<text text-anchor="start" x="864" y="-565.8" font-family="Times,serif" font-size="14.00" fill="#3c3c3c">glossary:history:HistoryName:name</text>
</a>
</g>
<g id="a_node6_9"><a xlink:href="#history:HistoryName:dtStart" xlink:title="&lt;TABLE&gt;">
<polygon fill="#ffffff" stroke="none" points="856,-535 856,-558 1075,-558 1075,-535 856,-535"/>
<polygon fill="none" stroke="black" points="856,-535 856,-558 1075,-558 1075,-535 856,-535"/>
<text text-anchor="start" x="860.5" y="-542.8" font-family="Times,serif" font-size="14.00" fill="#3c3c3c">glossary:history:HistoryName:dtStart</text>
</a>
</g>
<g id="a_node6_10"><a xlink:href="#history:HistoryName:dtEnd" xlink:title="&lt;TABLE&gt;">
<polygon fill="#ffffff" stroke="none" points="856,-512 856,-535 1075,-535 1075,-512 856,-512"/>
<polygon fill="none" stroke="black" points="856,-512 856,-535 1075,-535 1075,-512 856,-512"/>
<text text-anchor="start" x="862" y="-519.8" font-family="Times,serif" font-size="14.00" fill="#3c3c3c">glossary:history:HistoryName:dtEnd</text>
</a>
</g>
<polygon fill="none" stroke="black" points="854.5,-511.5 854.5,-606.5 1075.5,-606.5 1075.5,-511.5 854.5,-511.5"/>
</g>
<!-- glossary_history_Union&#45;&gt;glossary_history_HistoryName -->
<g id="edge3" class="edge"><title>glossary_history_Union&#45;&gt;glossary_history_HistoryName</title>
<path fill="none" stroke="black" d="M813.928,-559C827.278,-559 840.968,-559 854.389,-559"/>
<polygon fill="none" stroke="black" points="813.782,-559 807.782,-563 801.782,-559 807.782,-555 813.782,-559"/>
<text text-anchor="middle" x="850.389" y="-547.8" font-family="Times,serif" font-size="14.00">*</text>
</g>
<!-- glossary_history_School -->
<g id="node3" class="node"><title>glossary_history_School</title>
<g id="a_node3_11"><a xlink:href="#history:School" xlink:title="School">
<polygon fill="#dddddd" stroke="none" points="2,-573 2,-597 187,-597 187,-573 2,-573"/>
<polygon fill="none" stroke="black" points="2,-573 2,-597 187,-597 187,-573 2,-573"/>
<text text-anchor="start" x="74" y="-581.3" font-family="Times,serif" font-size="14.00" fill="#0000cc">Школа</text>
</a>
</g>
<g id="a_node3_12"><a xlink:href="#history:Union:mission" xlink:title="&lt;TABLE&gt;">
<polygon fill="#ffffff" stroke="none" points="2,-550 2,-573 187,-573 187,-550 2,-550"/>
<polygon fill="none" stroke="black" points="2,-550 2,-573 187,-573 187,-550 2,-550"/>
<text text-anchor="start" x="6.5" y="-557.8" font-family="Times,serif" font-size="14.00" fill="#3c3c3c">glossary:history:Union:mission</text>
</a>
</g>
<g id="a_node3_13"><a xlink:href="#history:Stuff" xlink:title="Stuff">
<polygon fill="#ffffff" stroke="none" points="2,-527 2,-550 187,-550 187,-527 2,-527"/>
<polygon fill="none" stroke="black" points="2,-527 2,-550 187,-550 187,-527 2,-527"/>
<text text-anchor="start" x="33.5" y="-534.8" font-family="Times,serif" font-size="14.00" fill="#0000cc">Школьный персонал</text>
</a>
</g>
<polygon fill="none" stroke="black" points="0.5,-526 0.5,-598 187.5,-598 187.5,-526 0.5,-526"/>
</g>
<!-- glossary_history_School&#45;&gt;glossary_history_Union -->
<g id="edge7" class="edge"><title>glossary_history_School:glossary_history_School&#45;&gt;glossary_history_Union</title>
<path fill="none" stroke="black" d="M188,-585C332.498,-585 499.342,-574.823 604.008,-567.203"/>
<polygon fill="none" stroke="black" points="604.538,-570.673 614.254,-566.451 604.025,-563.692 604.538,-570.673"/>
</g>
<!-- glossary_history_Year -->
<g id="node4" class="node"><title>glossary_history_Year</title>
<g id="a_node4_14"><a xlink:href="#history:Year" xlink:title="Year">
<polygon fill="#dddddd" stroke="none" points="226,-539 226,-563 299,-563 299,-539 226,-539"/>
<polygon fill="none" stroke="black" points="226,-539 226,-563 299,-563 299,-539 226,-539"/>
<text text-anchor="start" x="230.5" y="-547.3" font-family="Times,serif" font-size="14.00" fill="#0000cc">Параллель</text>
</a>
</g>
<polygon fill="none" stroke="black" points="224.5,-538 224.5,-564 299.5,-564 299.5,-538 224.5,-538"/>
</g>
<!-- glossary_history_School&#45;&gt;glossary_history_Year -->
<g id="edge4" class="edge"><title>glossary_history_School&#45;&gt;glossary_history_Year</title>
<path fill="none" stroke="black" d="M199.689,-555.063C208.351,-554.489 216.674,-553.937 224.243,-553.436"/>
<polygon fill="none" stroke="black" points="199.681,-555.063 193.958,-559.451 187.707,-555.857 193.429,-551.469 199.681,-555.063"/>
<text text-anchor="middle" x="220.243" y="-542.236" font-family="Times,serif" font-size="14.00">*</text>
</g>
<!-- glossary_history_Year&#45;&gt;glossary_history_Union -->
<g id="edge8" class="edge"><title>glossary_history_Year:glossary_history_Year&#45;&gt;glossary_history_Union</title>
<path fill="none" stroke="black" d="M299.132,-551.634C364.258,-552.811 505.998,-555.37 603.952,-557.139"/>
<polygon fill="none" stroke="black" points="604.12,-560.643 614.182,-557.324 604.247,-553.644 604.12,-560.643"/>
</g>
<!-- glossary_history_Form -->
<g id="node5" class="node"><title>glossary_history_Form</title>
<g id="a_node5_15"><a xlink:href="#history:Form" xlink:title="Form">
<polygon fill="#dddddd" stroke="none" points="427,-501 427,-525 472,-525 472,-501 427,-501"/>
<polygon fill="none" stroke="black" points="427,-501 427,-525 472,-525 472,-501 427,-501"/>
<text text-anchor="start" x="431.5" y="-509.3" font-family="Times,serif" font-size="14.00" fill="#0000cc">Класс</text>
</a>
</g>
<polygon fill="none" stroke="black" points="425.5,-500 425.5,-526 472.5,-526 472.5,-500 425.5,-500"/>
</g>
<!-- glossary_history_Year&#45;&gt;glossary_history_Form -->
<g id="edge5" class="edge"><title>glossary_history_Year&#45;&gt;glossary_history_Form</title>
<path fill="none" stroke="black" d="M311.539,-541.03C346.884,-533.77 393.387,-524.218 421.961,-518.349"/>
<polygon fill="none" stroke="black" points="311.305,-541.078 306.232,-546.203 299.55,-543.492 304.622,-538.367 311.305,-541.078"/>
<text text-anchor="middle" x="417.961" y="-507.149" font-family="Times,serif" font-size="14.00">*</text>
</g>
<!-- glossary_history_Form&#45;&gt;glossary_history_Union -->
<g id="edge9" class="edge"><title>glossary_history_Form:glossary_history_Form&#45;&gt;glossary_history_Union</title>
<path fill="none" stroke="black" d="M472.386,-516.843C501.448,-522.065 555.399,-531.759 604.244,-540.536"/>
<polygon fill="none" stroke="black" points="603.795,-544.011 614.256,-542.335 605.033,-537.122 603.795,-544.011"/>
</g>
<!-- glossary_history_Person -->
<g id="node7" class="node"><title>glossary_history_Person</title>
<g id="a_node7_16"><a xlink:href="#history:Person" xlink:title="Person">
<polygon fill="#dddddd" stroke="none" points="600,-234 600,-258 817,-258 817,-234 600,-234"/>
<polygon fill="none" stroke="black" points="600,-234 600,-258 817,-258 817,-234 600,-234"/>
<text text-anchor="start" x="683.5" y="-242.3" font-family="Times,serif" font-size="14.00" fill="#0000cc">Персона</text>
</a>
</g>
<g id="a_node7_17"><a xlink:href="#history:Person:firstName" xlink:title="&lt;TABLE&gt;">
<polygon fill="#ffffff" stroke="none" points="600,-211 600,-234 817,-234 817,-211 600,-211"/>
<polygon fill="none" stroke="black" points="600,-211 600,-234 817,-234 817,-211 600,-211"/>
<text text-anchor="start" x="613" y="-218.8" font-family="Times,serif" font-size="14.00" fill="#3c3c3c">glossary:history:Person:firstName</text>
</a>
</g>
<g id="a_node7_18"><a xlink:href="#history:Person:secondName" xlink:title="&lt;TABLE&gt;">
<polygon fill="#ffffff" stroke="none" points="600,-188 600,-211 817,-211 817,-188 600,-188"/>
<polygon fill="none" stroke="black" points="600,-188 600,-211 817,-211 817,-188 600,-188"/>
<text text-anchor="start" x="604.5" y="-195.8" font-family="Times,serif" font-size="14.00" fill="#3c3c3c">glossary:history:Person:secondName</text>
</a>
</g>
<g id="a_node7_19"><a xlink:href="#history:Person:middleName" xlink:title="&lt;TABLE&gt;">
<polygon fill="#ffffff" stroke="none" points="600,-165 600,-188 817,-188 817,-165 600,-165"/>
<polygon fill="none" stroke="black" points="600,-165 600,-188 817,-188 817,-165 600,-165"/>
<text text-anchor="start" x="604.5" y="-172.8" font-family="Times,serif" font-size="14.00" fill="#3c3c3c">glossary:history:Person:middleName</text>
</a>
</g>
<g id="a_node7_20"><a xlink:href="#history:Person:enName" xlink:title="&lt;TABLE&gt;">
<polygon fill="#ffffff" stroke="none" points="600,-142 600,-165 817,-165 817,-142 600,-142"/>
<polygon fill="none" stroke="black" points="600,-142 600,-165 817,-165 817,-142 600,-142"/>
<text text-anchor="start" x="617.5" y="-149.8" font-family="Times,serif" font-size="14.00" fill="#3c3c3c">glossary:history:Person:enName</text>
</a>
</g>
<g id="a_node7_21"><a xlink:href="#history:Person:DOB" xlink:title="&lt;TABLE&gt;">
<polygon fill="#ffffff" stroke="none" points="600,-119 600,-142 817,-142 817,-119 600,-119"/>
<polygon fill="none" stroke="black" points="600,-119 600,-142 817,-142 817,-119 600,-119"/>
<text text-anchor="start" x="626" y="-126.8" font-family="Times,serif" font-size="14.00" fill="#3c3c3c">glossary:history:Person:DOB</text>
</a>
</g>
<polygon fill="none" stroke="black" points="598.5,-118.5 598.5,-259.5 817.5,-259.5 817.5,-118.5 598.5,-118.5"/>
</g>
<!-- glossary_history_Person&#45;&gt;glossary_history_Resource -->
<g id="edge10" class="edge"><title>glossary_history_Person:glossary_history_Person&#45;&gt;glossary_history_Resource</title>
<path fill="none" stroke="black" d="M818,-246C859.731,-246 901.228,-270.916 929.255,-292.402"/>
<polygon fill="none" stroke="black" points="927.131,-295.184 937.148,-298.637 931.47,-289.691 927.131,-295.184"/>
</g>
<!-- glossary_history_Document -->
<g id="node8" class="node"><title>glossary_history_Document</title>
<g id="a_node8_22"><a xlink:href="#history:Document" xlink:title="Document">
<polygon fill="#dddddd" stroke="none" points="614,-75 614,-99 802,-99 802,-75 614,-75"/>
<polygon fill="none" stroke="black" points="614,-75 614,-99 802,-99 802,-75 614,-75"/>
<text text-anchor="start" x="678.5" y="-83.3" font-family="Times,serif" font-size="14.00" fill="#0000cc">Документ</text>
</a>
</g>
<g id="a_node8_23"><a xlink:href="#history:Document:href" xlink:title="&lt;TABLE&gt;">
<polygon fill="#ffffff" stroke="none" points="614,-52 614,-75 802,-75 802,-52 614,-52"/>
<polygon fill="none" stroke="black" points="614,-52 614,-75 802,-75 802,-52 614,-52"/>
<text text-anchor="start" x="618.5" y="-59.8" font-family="Times,serif" font-size="14.00" fill="#3c3c3c">glossary:history:Document:href</text>
</a>
</g>
<g id="a_node8_24"><a xlink:href="#history:Document:dt" xlink:title="&lt;TABLE&gt;">
<polygon fill="#ffffff" stroke="none" points="614,-29 614,-52 802,-52 802,-29 614,-29"/>
<polygon fill="none" stroke="black" points="614,-29 614,-52 802,-52 802,-29 614,-29"/>
<text text-anchor="start" x="624.5" y="-36.8" font-family="Times,serif" font-size="14.00" fill="#3c3c3c">glossary:history:Document:dt</text>
</a>
</g>
<polygon fill="none" stroke="black" points="613,-28 613,-100 803,-100 803,-28 613,-28"/>
</g>
<!-- glossary_history_Document&#45;&gt;glossary_history_Resource -->
<g id="edge11" class="edge"><title>glossary_history_Document:glossary_history_Document&#45;&gt;glossary_history_Resource</title>
<path fill="none" stroke="black" d="M803,-87C899.513,-87 942.326,-223.355 957.312,-288.774"/>
<polygon fill="none" stroke="black" points="953.914,-289.619 959.483,-298.633 960.751,-288.114 953.914,-289.619"/>
</g>
<!-- glossary_history_LogItem -->
<g id="node9" class="node"><title>glossary_history_LogItem</title>
<g id="a_node9_25"><a xlink:href="#history:LogItem" xlink:title="LogItem">
<polygon fill="#dddddd" stroke="none" points="607,-456 607,-480 809,-480 809,-456 607,-456"/>
<polygon fill="none" stroke="black" points="607,-456 607,-480 809,-480 809,-456 607,-456"/>
<text text-anchor="start" x="622" y="-464.3" font-family="Times,serif" font-size="14.00" fill="#0000cc">Запись в журнале изменений</text>
</a>
</g>
<g id="a_node9_26"><a xlink:href="#history:LogItem:dtCreate" xlink:title="&lt;TABLE&gt;">
<polygon fill="#ffffff" stroke="none" points="607,-433 607,-456 809,-456 809,-433 607,-433"/>
<polygon fill="none" stroke="black" points="607,-433 607,-456 809,-456 809,-433 607,-433"/>
<text text-anchor="start" x="611.5" y="-440.8" font-family="Times,serif" font-size="14.00" fill="#3c3c3c">glossary:history:LogItem:dtCreate</text>
</a>
</g>
<g id="a_node9_27"><a xlink:href="#history:LogItem:action" xlink:title="&lt;TABLE&gt;">
<polygon fill="#ffffff" stroke="none" points="607,-410 607,-433 809,-433 809,-410 607,-410"/>
<polygon fill="none" stroke="black" points="607,-410 607,-433 809,-433 809,-410 607,-410"/>
<text text-anchor="start" x="618" y="-417.8" font-family="Times,serif" font-size="14.00" fill="#3c3c3c">glossary:history:LogItem:action</text>
</a>
</g>
<g id="a_node9_28"><a xlink:href="#history:LogItem:author" xlink:title="&lt;TABLE&gt;">
<polygon fill="#ffffff" stroke="none" points="607,-387 607,-410 809,-410 809,-387 607,-387"/>
<polygon fill="none" stroke="black" points="607,-387 607,-410 809,-410 809,-387 607,-387"/>
<text text-anchor="start" x="617" y="-394.8" font-family="Times,serif" font-size="14.00" fill="#3c3c3c">glossary:history:LogItem:author</text>
</a>
</g>
<polygon fill="none" stroke="black" points="606,-386.5 606,-481.5 810,-481.5 810,-386.5 606,-386.5"/>
</g>
<!-- glossary_history_LogItem&#45;&gt;glossary_history_Resource -->
<g id="edge12" class="edge"><title>glossary_history_LogItem:glossary_history_LogItem&#45;&gt;glossary_history_Resource</title>
<path fill="none" stroke="black" d="M810,-468C874.832,-468 923.485,-399.039 947.44,-356.233"/>
<polygon fill="none" stroke="black" points="950.611,-357.727 952.311,-347.27 944.461,-354.385 950.611,-357.727"/>
</g>
<!-- glossary_history_TraversalRule -->
<g id="node10" class="node"><title>glossary_history_TraversalRule</title>
<g id="a_node10_29"><a xlink:href="#history:TraversalRule" xlink:title="TraversalRule">
<polygon fill="#dddddd" stroke="none" points="338,-345 338,-369 561,-369 561,-345 338,-345"/>
<polygon fill="none" stroke="black" points="338,-345 338,-369 561,-369 561,-345 338,-345"/>
<text text-anchor="start" x="362" y="-353.3" font-family="Times,serif" font-size="14.00" fill="#0000cc">Отношение между ресурсами</text>
</a>
</g>
<g id="a_node10_30"><a xlink:href="#history:TraversalRule:role" xlink:title="&lt;TABLE&gt;">
<polygon fill="#ffffff" stroke="none" points="338,-322 338,-345 561,-345 561,-322 338,-322"/>
<polygon fill="none" stroke="black" points="338,-322 338,-345 561,-345 561,-322 338,-322"/>
<text text-anchor="start" x="350" y="-329.8" font-family="Times,serif" font-size="14.00" fill="#3c3c3c">glossary:history:TraversalRule:role</text>
</a>
</g>
<g id="a_node10_31"><a xlink:href="#history:TraversalRule:dtStart" xlink:title="&lt;TABLE&gt;">
<polygon fill="#ffffff" stroke="none" points="338,-299 338,-322 561,-322 561,-299 338,-299"/>
<polygon fill="none" stroke="black" points="338,-299 338,-322 561,-322 561,-299 338,-299"/>
<text text-anchor="start" x="342.5" y="-306.8" font-family="Times,serif" font-size="14.00" fill="#3c3c3c">glossary:history:TraversalRule:dtStart</text>
</a>
</g>
<g id="a_node10_32"><a xlink:href="#history:TraversalRule:dtEnd" xlink:title="&lt;TABLE&gt;">
<polygon fill="#ffffff" stroke="none" points="338,-276 338,-299 561,-299 561,-276 338,-276"/>
<polygon fill="none" stroke="black" points="338,-276 338,-299 561,-299 561,-276 338,-276"/>
<text text-anchor="start" x="344.5" y="-283.8" font-family="Times,serif" font-size="14.00" fill="#3c3c3c">glossary:history:TraversalRule:dtEnd</text>
</a>
</g>
<polygon fill="none" stroke="black" points="336.5,-275.5 336.5,-370.5 561.5,-370.5 561.5,-275.5 336.5,-275.5"/>
</g>
<!-- glossary_history_Source -->
<g id="node11" class="node"><title>glossary_history_Source</title>
<g id="a_node11_33"><a xlink:href="#history:Source" xlink:title="Source">
<polygon fill="#dddddd" stroke="none" points="640,-338 640,-362 776,-362 776,-338 640,-338"/>
<polygon fill="none" stroke="black" points="640,-338 640,-362 776,-362 776,-338 640,-338"/>
<text text-anchor="start" x="644.5" y="-346.3" font-family="Times,serif" font-size="14.00" fill="#0000cc">Источник отношения</text>
</a>
</g>
<polygon fill="none" stroke="black" points="639,-337 639,-363 777,-363 777,-337 639,-337"/>
</g>
<!-- glossary_history_TraversalRule&#45;&gt;glossary_history_Source -->
<g id="edge2" class="edge"><title>glossary_history_TraversalRule&#45;&gt;glossary_history_Source</title>
<path fill="none" stroke="black" d="M573.664,-335.992C596.1,-338.349 618.732,-340.727 638.821,-342.837"/>
<polygon fill="none" stroke="black" points="573.537,-335.979 567.152,-339.33 561.603,-334.725 567.988,-331.374 573.537,-335.979"/>
</g>
<!-- glossary_history_Destination -->
<g id="node12" class="node"><title>glossary_history_Destination</title>
<g id="a_node12_34"><a xlink:href="#history:Destination" xlink:title="Destination">
<polygon fill="#dddddd" stroke="none" points="635,-284 635,-308 782,-308 782,-284 635,-284"/>
<polygon fill="none" stroke="black" points="635,-284 635,-308 782,-308 782,-284 635,-284"/>
<text text-anchor="start" x="639.5" y="-292.3" font-family="Times,serif" font-size="14.00" fill="#0000cc">Назначение отношения</text>
</a>
</g>
<polygon fill="none" stroke="black" points="633.5,-283 633.5,-309 782.5,-309 782.5,-283 633.5,-283"/>
</g>
<!-- glossary_history_TraversalRule&#45;&gt;glossary_history_Destination -->
<g id="edge1" class="edge"><title>glossary_history_TraversalRule&#45;&gt;glossary_history_Destination</title>
<path fill="none" stroke="black" d="M573.588,-310.016C594.002,-307.871 614.582,-305.709 633.262,-303.747"/>
<polygon fill="none" stroke="black" points="573.537,-310.021 567.988,-314.626 561.603,-311.275 567.152,-306.67 573.537,-310.021"/>
</g>
<!-- glossary_history_Source&#45;&gt;glossary_history_Resource -->
<g id="edge13" class="edge"><title>glossary_history_Source:glossary_history_Source&#45;&gt;glossary_history_Resource</title>
<path fill="none" stroke="black" d="M776.332,-342.871C802.599,-340.09 833.286,-336.84 862.145,-333.785"/>
<polygon fill="none" stroke="black" points="862.691,-337.247 872.266,-332.713 861.953,-330.285 862.691,-337.247"/>
</g>
<!-- glossary_history_Destination&#45;&gt;glossary_history_Resource -->
<g id="edge14" class="edge"><title>glossary_history_Destination:glossary_history_Destination&#45;&gt;glossary_history_Resource</title>
<path fill="none" stroke="black" d="M782.107,-303.665C806.947,-306.305 835.256,-309.315 862.022,-312.16"/>
<polygon fill="none" stroke="black" points="861.88,-315.664 872.194,-313.241 862.62,-308.704 861.88,-315.664"/>
</g>
</g>
</svg>
