<?xml version="1.0" encoding="UTF-8" standalone="no"?>
<!-- Created with Inkscape (http://www.inkscape.org/) -->
<svg xmlns:svg="http://www.w3.org/2000/svg" xmlns="http://www.w3.org/2000/svg" version="1.1" width="315" height="364" id="svg3034">
  <defs id="defs3038"/>
  <path d="m 55,339.54138 c 0,-6.75534 -0.38606,-9.69795 -1.38064,-10.52338 -0.97502,-0.8092 -1.592709,-5.10519 -2.102449,-14.62245 -0.66251,-12.36956 -0.879441,-13.47661 -2.640791,-13.47661 -2.225409,0 -4.72677,-4.54935 -3.29086,-5.98526 0.51205,-0.51205 4.23826,-1.11412 8.28045,-1.33793 7.39579,-0.40948 9.085691,-1.29531 9.11898,-4.78007 0.0202,-2.11002 -9.11486,-2.89674 -33.63557,-2.89674 l -18.34912,0 0,-2.5 0,-2.5 18.34912,0 c 10.09202,0 21.79202,-0.29103 26,-0.64674 L 63,279.62547 l 0,-4.19275 c 0,-6.0463 1.618161,-6.51378 22.54705,-6.51378 l 17.45295,0 0,-16 c 0,-12.76632 -0.27287,-16.00001 -1.35015,-16.00001 -0.9946,0 -1.32378,-1.57956 -1.25,-5.99821 0.085,-5.0932 0.37436,-5.99848 1.91754,-6 1.35096,-10e-4 1.6574,-0.50587 1.19401,-1.96586 -0.45105,-1.42114 0.29052,-2.79521 2.68261,-4.97069 4.11773,-3.74484 5.54899,-3.80941 6.98813,-0.31524 0.75886,1.84247 1.2554,2.2478 1.50462,1.22824 0.32428,-1.32663 -14.81246,-137.349432 -16.20171,-145.592927 -0.512969,-3.043857 -0.6725,-3.126537 -7.014709,-3.635628 -5.825821,-0.467642 -9.49768,-1.874292 -9.455031,-3.622128 0.0538,-2.206244 3.24745,-3.444684 17.022199,-6.600971 16.143401,-3.699028 48.273931,-15.09227 47.670191,-16.90348 -0.18161,-0.54483 -2.04966,-1.88292 -4.15123,-2.97354 -3.37589,-1.75193 -3.62741,-2.12452 -2.15897,-3.19827 1.34581,-0.98409 1.60883,-2.66731 1.38228,-8.84618 -0.2234,-6.09326 0.0225,-7.71701 1.22022,-8.05846 0.825,-0.23519 3.525,-0.92318 6,-1.52887 2.475,-0.60569 5.5125,-1.60851 6.75,-2.2285 1.67027,-0.8368 2.82973,-0.83597 4.5,0.003 1.2375,0.62177 4.725,1.82163 7.75,2.66636 l 5.5,1.53587 -0.27978,7.6206 c -0.22651,6.16936 0.0367,7.85205 1.38228,8.83594 1.46844,1.07375 1.21692,1.44634 -2.15897,3.19827 -2.10157,1.09062 -3.96962,2.42871 -4.15123,2.97354 -0.60374,1.81122 31.52679,13.204454 47.67019,16.903482 13.77475,3.156287 16.96836,4.394727 17.0222,6.600971 0.0427,1.747836 -3.62921,3.154486 -9.45503,3.622128 -6.34222,0.509091 -6.50174,0.591771 -7.01471,3.635628 C 215.78091,77.659599 200,216.47657 200,218.57792 c 0,1.38886 0.5333,1.20402 2.80472,-0.97214 3.48895,-3.34262 4.97845,-3.3876 6.19528,-0.18709 0.52277,1.375 1.46042,2.5 2.08366,2.5 0.70936,0 0.89849,0.935 0.5057,2.5 -0.4921,1.96067 -0.24583,2.50039 1.14159,2.50179 1.4841,0.001 1.78518,0.96795 1.8692,6 0.0738,4.41865 -0.2554,5.99821 -1.25,5.99821 -1.07728,0 -1.35015,3.23369 -1.35015,16.00001 l 0,16 17.45295,0 c 20.92889,0 22.54705,0.46748 22.54705,6.51378 l 0,4.19275 7.65088,0.64673 c 4.20798,0.35571 15.90798,0.64674 26,0.64674 l 18.34912,0 0,2.5 0,2.5 -18.34912,0 c -24.52071,0 -33.65572,0.78672 -33.63557,2.89674 0.0333,3.48476 1.72319,4.37059 9.11898,4.78007 4.04219,0.22381 7.7684,0.82588 8.28045,1.33793 1.43591,1.43591 -1.06545,5.98526 -3.29086,5.98526 -1.76135,0 -1.97829,1.10705 -2.64079,13.47661 -0.50974,9.51726 -1.12743,13.81325 -2.10245,14.62245 C 260.38606,329.84319 260,332.7858 260,339.54114 l 0,9.37756 -102.5,0 -102.5,0 0,-9.37756 z m 49,-106.62245 c 0,-0.55 -0.45,-1 -1,-1 -0.55,0 -1,0.45 -1,1 0,0.55 0.45,1 1,1 0.55,0 1,-0.45 1,-1 z m 16,0 c 0,-0.55 -0.45,-1 -1,-1 -0.55,0 -1,0.45 -1,1 0,0.55 0.45,1 1,1 0.55,0 1,-0.45 1,-1 z m 3.5,0 c 0.33992,-0.55 -0.0835,-1 -0.94098,-1 -0.85746,0 -1.55902,0.45 -1.55902,1 0,0.55 0.42344,1 0.94098,1 0.51754,0 1.2191,-0.45 1.55902,-1 z m 9.5,0 c 0,-0.55 -0.70156,-1 -1.55902,-1 -0.85746,0 -1.2809,0.45 -0.94098,1 0.33992,0.55 1.04148,1 1.55902,1 0.51754,0 0.94098,-0.45 0.94098,-1 z m 51.5,0 c 0.33992,-0.55 -0.0835,-1 -0.94098,-1 -0.85746,0 -1.55902,0.45 -1.55902,1 0,0.55 0.42344,1 0.94098,1 0.51754,0 1.2191,-0.45 1.55902,-1 z m 9.5,0 c 0,-0.55 -0.70156,-1 -1.55902,-1 -0.85746,0 -1.2809,0.45 -0.94098,1 0.33992,0.55 1.04148,1 1.55902,1 0.51754,0 0.94098,-0.45 0.94098,-1 z m 3,0 c 0,-0.55 -0.45,-1 -1,-1 -0.55,0 -1,0.45 -1,1 0,0.55 0.45,1 1,1 0.55,0 1,-0.45 1,-1 z m 16,0 c 0,-0.55 -0.45,-1 -1,-1 -0.55,0 -1,0.45 -1,1 0,0.55 0.45,1 1,1 0.55,0 1,-0.45 1,-1 z m -108,-3 c 0,-0.55 -0.675,-1 -1.5,-1 -0.825,0 -1.5,0.45 -1.5,1 0,0.55 0.675,1 1.5,1 0.825,0 1.5,-0.45 1.5,-1 z m 11,0 c 0,-0.55 -0.70156,-1 -1.55902,-1 -0.85746,0 -1.2809,0.45 -0.94098,1 0.33992,0.55 1.04148,1 1.55902,1 0.51754,0 0.94098,-0.45 0.94098,-1 z m 4,0 c 0,-0.55 -0.45,-1 -1,-1 -0.55,0 -1,0.45 -1,1 0,0.55 0.45,1 1,1 0.55,0 1,-0.45 1,-1 z m 3,0 c 0,-0.55 -0.45,-1 -1,-1 -0.55,0 -1,0.45 -1,1 0,0.55 0.45,1 1,1 0.55,0 1,-0.45 1,-1 z m 61,0 c 0,-0.55 -0.45,-1 -1,-1 -0.55,0 -1,0.45 -1,1 0,0.55 0.45,1 1,1 0.55,0 1,-0.45 1,-1 z m 10,0 c 0,-0.55 -0.92656,-1 -2.05902,-1 -1.13246,0 -1.7809,0.45 -1.44098,1 0.33992,0.55 1.26648,1 2.05902,1 0.79254,0 1.44098,-0.45 1.44098,-1 z m 3,0 c 0,-0.55 -0.45,-1 -1,-1 -0.55,0 -1,0.45 -1,1 0,0.55 0.45,1 1,1 0.55,0 1,-0.45 1,-1 z m 4.5,0 c 0.33992,-0.55 -0.0835,-1 -0.94098,-1 -0.85746,0 -1.55902,0.45 -1.55902,1 0,0.55 0.42344,1 0.94098,1 0.51754,0 1.2191,-0.45 1.55902,-1 z m 11.5,0 c 0,-0.55 -0.675,-1 -1.5,-1 -0.825,0 -1.5,0.45 -1.5,1 0,0.55 0.675,1 1.5,1 0.825,0 1.5,-0.45 1.5,-1 z m -108,-3 c 0,-0.55 -0.675,-1 -1.5,-1 -0.825,0 -1.5,0.45 -1.5,1 0,0.55 0.675,1 1.5,1 0.825,0 1.5,-0.45 1.5,-1 z m 3.5,0 c 0.33992,-0.55 -0.0835,-1 -0.94098,-1 -0.85746,0 -1.55902,0.45 -1.55902,1 0,0.55 0.42344,1 0.94098,1 0.51754,0 1.2191,-0.45 1.55902,-1 z m 7.5,0 c 0,-0.55 -0.45,-1 -1,-1 -0.55,0 -1,0.45 -1,1 0,0.55 0.45,1 1,1 0.55,0 1,-0.45 1,-1 z m 4,-0.059 c 0,-0.58246 -0.45,-0.7809 -1,-0.44098 -0.55,0.33992 -1,0.81648 -1,1.05902 0,0.24254 0.45,0.44098 1,0.44098 0.55,0 1,-0.47656 1,-1.05902 z m 4,0.059 c -1.93876,-1.25292 -3,-1.25292 -3,0 0,0.55 1.0125,0.99311 2.25,0.98469 1.81944,-0.0124 1.96296,-0.20082 0.75,-0.98469 z m 61,0 c -1.93876,-1.25292 -3,-1.25292 -3,0 0,0.55 1.0125,0.99311 2.25,0.98469 1.81944,-0.0124 1.96296,-0.20082 0.75,-0.98469 z m 8.52699,0.0437 c -0.32507,-0.52598 -1.25163,-0.70283 -2.05902,-0.39301 -2.06711,0.79323 -1.82352,1.34934 0.59105,1.34934 1.13246,0 1.79305,-0.43035 1.46797,-0.95633 z m 2.97301,-0.0437 c -0.33992,-0.55 -0.81648,-1 -1.05902,-1 -0.24254,0 -0.44098,0.45 -0.44098,1 0,0.55 0.47656,1 1.05902,1 0.58246,0 0.7809,-0.45 0.44098,-1 z m 4.5,0 c 0,-0.55 -0.45,-1 -1,-1 -0.55,0 -1,0.45 -1,1 0,0.55 0.45,1 1,1 0.55,0 1,-0.45 1,-1 z m 3.5,0 c 0.33992,-0.55 -0.0835,-1 -0.94098,-1 -0.85746,0 -1.55902,0.45 -1.55902,1 0,0.55 0.42344,1 0.94098,1 0.51754,0 1.2191,-0.45 1.55902,-1 z m 8.5,0 c 0,-0.55 -0.675,-1 -1.5,-1 -0.825,0 -1.5,0.45 -1.5,1 0,0.55 0.675,1 1.5,1 0.825,0 1.5,-0.45 1.5,-1 z m -91.36163,-3.5 c -0.35062,-0.91371 -0.002,-1.5 0.89301,-1.5 0.89986,0 1.46862,-0.96819 1.46862,-2.5 0,-2.09853 0.47109,-2.5 2.93358,-2.5 2.43013,0 2.98788,0.45644 3.25,2.65966 0.24042,2.02082 1.93776,-0.9833 7.06642,-12.50684 6.244,-14.02959 6.75,-15.69073 6.75,-22.15966 0,-4.68748 -0.38718,-6.99316 -1.17431,-6.99316 -0.64694,0 -0.26477,-1.01045 0.85098,-2.25 2.57781,-2.86381 3.62786,-5.75 2.09195,-5.75 -0.87406,0 -0.86614,-0.30248 0.0314,-1.2 1.45358,-1.45358 1.59579,-7.43736 0.1973,-8.30167 -2.19722,-1.35795 0.97078,-4.49833 4.53786,-4.49833 l 3.46482,0 -0.0146,-24.75 C 153.97,104.92887 153.9214,104.5818 148.56668,92.473913 146.86071,88.616296 146,84.887251 146,81.353519 c 0,-2.924104 -0.34445,-5.529433 -0.76544,-5.789619 -0.42099,-0.260186 -6.14219,30.36215 -12.71378,68.04962 -6.5716,37.68748 -12.09966,68.06876 -12.2846,67.51396 -0.18493,-0.55481 4.00246,-25.69119 9.30532,-55.85864 10.74096,-61.104312 10.25449,-54.08386 5.23854,-75.599908 l -2.03985,-8.75 -3.78033,0 -3.78032,0 -0.59225,8.25 c -0.32574,4.5375 -1.73425,35.809648 -3.13002,69.493668 -1.93638,46.73047 -2.276,62.21581 -1.43314,65.34595 0.78812,2.92684 0.79965,4.97713 0.0403,7.15555 -1.34716,3.86446 -1.363,3.75483 0.54261,3.75483 1.01759,0 1.39587,-0.55016 1.03138,-1.5 z m -0.21616,-10 c 2.05344,-8.75589 29.94951,-106.22711 30.76629,-107.5 0.85522,-1.33278 0.9125,-1.33265 0.51387,10e-4 -0.24675,0.82565 -7.31419,25.80065 -15.70543,55.5 -8.39124,29.69933 -15.48663,54.2238 -15.76754,54.4988 -0.28092,0.275 -0.19415,-0.85 0.19281,-2.5 z m 18.57779,10.5 c 0,-0.55 -0.9,-1 -2,-1 -1.1,0 -2,0.45 -2,1 0,0.55 0.9,1 2,1 1.1,0 2,-0.45 2,-1 z m 39,0 c 0,-0.55 -0.9,-1 -2,-1 -1.1,0 -2,0.45 -2,1 0,0.55 0.9,1 2,1 1.1,0 2,-0.45 2,-1 z m 17,0.58707 c 0,-0.15874 -0.47897,-1.6626 -1.06438,-3.3419 -0.7594,-2.17842 -0.74787,-4.22871 0.0402,-7.15555 0.84286,-3.13014 0.50324,-18.61548 -1.43314,-65.34595 -1.39572,-33.68402 -2.80423,-64.956168 -3.12997,-69.493668 l -0.59225,-8.25 -3.78032,0 -3.78033,0 -2.03985,8.75 c -5.01595,21.516048 -5.50242,14.495596 5.23854,75.599908 5.30286,30.16745 9.49025,55.30383 9.30532,55.85864 -0.18494,0.5548 -5.713,-29.82648 -12.2846,-67.51396 C 175.90763,105.92605 170.18643,75.303714 169.76544,75.5639 169.34445,75.824086 169,78.429415 169,81.353519 c 0,3.533732 -0.86071,7.262777 -2.56673,11.120394 -5.35468,12.107887 -5.40329,12.454957 -5.41872,38.695017 l -0.0146,24.75 3.46482,0 c 3.56708,0 6.73508,3.14038 4.53788,4.49833 -1.39849,0.86431 -1.25628,6.84809 0.1973,8.30167 0.89752,0.89752 0.90544,1.2 0.0314,1.2 -1.53591,0 -0.48586,2.88619 2.09195,5.75 1.11575,1.23955 1.49792,2.25 0.85098,2.25 -0.85303,0 -1.17431,4.65102 -1.17431,17 0,16.33333 0.0784,17 2,17 1.31152,0 2,0.66667 2,1.93664 0,1.45399 0.80998,2.01474 3.25,2.25 2.70808,0.26111 3.30276,0.77191 3.56642,3.06336 0.40288,3.50133 3.18358,3.7197 3.18358,0.25 0,-2.11111 0.46667,-2.5 3,-2.5 2.50628,0 3,0.39798 3,2.41821 0,3.65849 0.84714,5.14467 3.02608,5.3088 1.08566,0.0818 1.97392,0.0188 1.97392,-0.13994 z m -10.4182,-36.38206 c -4.31283,-15.23775 -8.45148,-29.73001 -9.197,-32.20501 -0.74552,-2.475 -4.10941,-14.37402 -7.47531,-26.44227 -3.3659,-12.06825 -6.33147,-22.64325 -6.59016,-23.5 -0.40999,-1.35784 -0.34651,-1.36525 0.49465,-0.0577 1.21575,1.88977 31.53081,108.98855 31.00017,109.51918 -0.21496,0.21496 -3.91952,-12.07641 -8.23235,-27.31417 z M 140,220.91893 c 0,-0.55 -0.9,-1 -2,-1 -1.1,0 -2,0.45 -2,1 0,0.55 0.9,1 2,1 1.1,0 2,-0.45 2,-1 z m 39,0 c 0,-0.55 -0.9,-1 -2,-1 -1.1,0 -2,0.45 -2,1 0,0.55 0.9,1 2,1 1.1,0 2,-0.45 2,-1 z m -39,-3 c 0,-0.55 -0.42344,-1 -0.94098,-1 -0.51754,0 -1.2191,0.45 -1.55902,1 -0.33992,0.55 0.0835,1 0.94098,1 0.85746,0 1.55902,-0.45 1.55902,-1 z m 39,0 c 0,-0.55 -0.9,-1 -2,-1 -1.1,0 -2,0.45 -2,1 0,0.55 0.9,1 2,1 1.1,0 2,-0.45 2,-1 z m -39,-3.5 c 0,-0.825 -0.17686,-1.5 -0.39301,-1.5 -0.21616,0 -0.65203,0.675 -0.96862,1.5 -0.31658,0.825 -0.13972,1.5 0.39301,1.5 0.53274,0 0.96862,-0.675 0.96862,-1.5 z m 3.92105,-6.75 c -0.0434,-2.3375 -0.33016,-3.575 -0.6372,-2.75 -0.30704,0.825 -1.18307,2.7375 -1.94674,4.25 -1.28846,2.55191 -1.24256,2.75 0.63721,2.75 1.72887,0 2.01411,-0.62272 1.94673,-4.25 z m -26.56587,-48.96426 c 0.36399,-26.00716 0.94957,-56.39824 1.30128,-67.535738 l 0.63947,-20.25 -8.22742,0 -8.22742,0 0.53244,2.75 c 0.29284,1.5125 3.12632,32.078668 6.29661,67.924798 3.1703,35.84615 6.04747,64.99973 6.39371,64.78574 0.34624,-0.21399 0.92734,-21.66765 1.29133,-47.6748 z m 93.96389,-82.535738 0.53642,-5.25 -8.07571,0 -8.07571,0 0.63615,20.25 c 0.34988,11.137498 0.90124,41.174998 1.22523,66.749998 0.324,25.575 0.85168,47.175 1.17264,48 0.32095,0.825 3.16227,-26.85 6.31405,-61.5 3.15177,-34.65 5.97189,-65.362498 6.26693,-68.249998 z m -90.33532,61.749998 c 1.08907,-27.225 2.24704,-53.437498 2.57327,-58.249998 0.5551,-8.189073 0.46911,-8.75 -1.34144,-8.75 -1.83226,0 -1.96792,1.123691 -2.5655,21.25 -0.75416,25.400468 -1.60622,107.386648 -1.04186,100.249998 0.21747,-2.75 1.28646,-27.275 2.37553,-54.5 z m 27.53291,20.18283 c -0.53712,-1.39972 -0.75051,-1.42249 -1.52881,-0.16316 -0.54826,0.88709 -0.52707,1.84111 0.0538,2.42197 0.5271,0.5271 1.03038,2.10586 1.1184,3.50836 0.12127,1.93242 0.25943,1.73983 0.57046,-0.7952 0.22573,-1.83985 0.1295,-4.07724 -0.21384,-4.97197 z m 3.33315,3.56717 c 0.20277,5.7379 2.15019,5.44507 2.15019,-0.32332 0,-3.81534 -0.29005,-4.51831 -1.75,-4.24138 -1.33197,0.25266 -1.78215,1.40483 -1.88458,4.82333 l -0.13457,4.49137 0.73438,-4.5 0.73438,-4.5 0.1502,4.25 z m 11.30038,0 0.1502,-4.25 0.73438,4.5 0.73438,4.5 -0.13457,-4.49137 c -0.10243,-3.4185 -0.55261,-4.57067 -1.88458,-4.82333 -1.45995,-0.27693 -1.75,0.42604 -1.75,4.24138 0,5.76839 1.94742,6.06122 2.15019,0.32332 z m 4.85634,-1.12186 c 1.06376,-1.10781 0.0859,-3.8033 -1.11131,-3.06338 -0.49237,0.3043 -0.83394,2.43922 -0.75904,4.74426 0.0885,2.72405 0.29317,3.31593 0.58468,1.69098 0.24667,-1.375 0.82522,-2.89233 1.28567,-3.37186 z M 141.9485,83.962205 c 2.75335,-15.290811 2.91459,-14.40066 -2.4979,-13.790595 -2.50217,0.282031 -4.76372,0.727104 -5.02566,0.989052 -0.26195,0.261948 0.74683,5.92817 2.24173,12.591603 1.4949,6.663434 2.83327,12.000063 2.97416,11.859163 0.1409,-0.14089 1.17935,-5.383042 2.30767,-11.649223 z m 38.49511,-9.6708 c 0.51145,-2.661219 0.26226,-3.218301 -1.67127,-3.736346 -1.24979,-0.33485 -3.56735,-0.614962 -5.15015,-0.622472 -3.27447,-0.01554 -3.27786,-0.812668 0.0745,17.486345 l 1.64878,8.999996 2.24856,-9.499996 c 1.23671,-5.225 2.51904,-10.907387 2.84962,-12.627527 z m -27.78133,15.377527 c -0.27741,-0.6875 -0.50439,-0.125 -0.50439,1.25 0,1.375 0.22698,1.9375 0.50439,1.25 0.27741,-0.6875 0.27741,-1.8125 0,-2.5 z m 10,0 c -0.27741,-0.6875 -0.50439,-0.125 -0.50439,1.25 0,1.375 0.22698,1.9375 0.50439,1.25 0.27741,-0.6875 0.27741,-1.8125 0,-2.5 z M 151,89.918932 c 0,-0.55 -0.47656,-1 -1.05902,-1 -0.58246,0 -0.7809,0.45 -0.44098,1 0.33992,0.55 0.81648,1 1.05902,1 0.24254,0 0.44098,-0.45 0.44098,-1 z m 15,-0.559017 c 0,-0.242541 -0.45,-0.440983 -1,-0.440983 -0.55,0 -1,0.476558 -1,1.059017 0,0.582459 0.45,0.780902 1,0.440983 0.55,-0.339919 1,-0.816476 1,-1.059017 z M 151.28975,72.918932 c -0.52447,-2.005565 0.28677,-2.425968 3.96025,-2.052296 1.04483,0.106281 1.75,-0.501092 1.75,-1.50729 0,-1.332739 -0.29346,-1.441757 -1.40275,-0.521121 -0.88355,0.733275 -1.53129,0.792939 -1.75,0.161194 -0.22958,-0.663122 -1.78738,-0.636047 -4.59725,0.0799 -3.50516,0.893107 -4.25,1.49971 -4.25,3.461251 0,2.039011 0.48603,2.378362 3.40638,2.378362 2.91405,0 3.33079,-0.289063 2.88337,-2 z m 5.71025,0.5 c 0,-0.825 -0.7301,-1.5 -1.62244,-1.5 -1.3288,0 -1.39713,0.271492 -0.37756,1.5 0.68469,0.825 1.41479,1.5 1.62244,1.5 0.20766,0 0.37756,-0.675 0.37756,-1.5 z m 3,0 c 1.01957,-1.228508 0.95124,-1.5 -0.37756,-1.5 -0.89234,0 -1.62244,0.675 -1.62244,1.5 0,0.825 0.1699,1.5 0.37756,1.5 0.20765,0 0.93775,-0.675 1.62244,-1.5 z m 10,-0.878362 c 0,-1.961541 -0.74484,-2.568144 -4.25,-3.461251 -2.80987,-0.715947 -4.36767,-0.743022 -4.59725,-0.0799 -0.21871,0.631745 -0.86645,0.572081 -1.75,-0.161194 C 158.29346,67.917589 158,68.026607 158,69.359346 c 0,1.006198 0.70517,1.613571 1.75,1.50729 3.67348,-0.373672 4.48472,0.04673 3.96025,2.052296 -0.44742,1.710937 -0.0307,2 2.88337,2 2.92035,0 3.40638,-0.339351 3.40638,-2.378362 z m -21.83882,-14.619816 -0.33882,-6.001822 3.08882,0 c 4.06961,0 4.19381,-3.076996 0.23788,-5.893856 l -2.85093,-2.03005 -24.89907,9.56294 c -13.69448,5.259614 -25.08656,9.742492 -25.315731,9.96195 -0.229159,0.219459 11.020841,0.399836 25.000001,0.400838 l 25.41667,0.0018 -0.33882,-6.001822 z m 68.75549,5.599162 c -0.22917,-0.219458 -11.62125,-4.702336 -25.31573,-9.96195 l -24.89907,-9.56294 -2.85093,2.03005 c -3.95593,2.81686 -3.83173,5.893856 0.23788,5.893856 l 3.08882,0 -0.33882,6.001822 -0.33882,6.001822 25.41667,-0.0018 c 13.97916,-10e-4 25.22916,-0.181379 25,-0.400838 z M 156,23.918936 c 0,-3 0,-3 -6,-3 -6,0 -6,0 -6,3 0,3 0,3 6,3 6,0 6,0 6,-3 z m 15,0 c 0,-2.9697 -0.0556,-3 -5.5,-3 -5.44444,0 -5.5,0.0303 -5.5,3 0,2.96969 0.0556,3 5.5,3 5.44444,0 5.5,-0.0303 5.5,-3 z" id="path3056" style="fill:#000000"/>
</svg>