<?xml version="1.0" encoding="UTF-8" standalone="no"?>
<svg
   xmlns:dc="http://purl.org/dc/elements/1.1/"
   xmlns:cc="http://creativecommons.org/ns#"
   xmlns:rdf="http://www.w3.org/1999/02/22-rdf-syntax-ns#"
   xmlns:svg="http://www.w3.org/2000/svg"
   xmlns="http://www.w3.org/2000/svg"
   version="1.1"
   width="100"
   height="140"
   viewBox="0 0 370 524"
   id="svg2">
  <defs
     id="defs4" />
  <g
     transform="translate(-1.9190796,-2.0630092)"
     id="layer1">
    <path
       d="m 411.42856,182.36218 a 57.142857,52.857143 0 1 1 -114.28571,0 57.142857,52.857143 0 1 1 114.28571,0 z"
       transform="matrix(1.1351658,0,0,1,-219.74094,-127.44203)"
       id="path2985"
       style="fill:#00569c;fill-opacity:1;fill-rule:evenodd;stroke:none" />
    <path
       d="m 439.99999,386.64789 a 55.714287,142.85715 0 1 1 -111.42857,0 55.714287,142.85715 0 1 1 111.42857,0 z"
       transform="matrix(1.0097216,0,0,0.72455936,-204.33835,-62.292149)"
       id="path3763"
       style="fill:#00569c;fill-opacity:1;stroke:none" />
    <path
       d="M 66.874562,487.61682 C 96.791196,345.26792 152.38399,318.15496 187.10822,307.52769 c 36.77001,14.70604 108.5265,100.02529 113.0361,197.78017"
       id="path3767"
       style="fill:none;stroke:#005a9c;stroke-width:17.95199776px;stroke-linecap:butt;stroke-linejoin:miter;stroke-opacity:1" />
    <path
       d="m 257.14285,658.07648 a 41.42857,22.857143 0 1 1 -82.85714,0 41.42857,22.857143 0 1 1 82.85714,0 z"
       transform="matrix(1.0526434,0,0,1,-181.02863,-169.44203)"
       id="path3769"
       style="fill:#00569c;fill-opacity:1;stroke:#005a9c;stroke-opacity:1" />
    <path
       d="m 540,672.36218 a 47.142857,22.857143 0 1 1 -94.28571,0 47.142857,22.857143 0 1 1 94.28571,0 z"
       transform="translate(-171.85364,-169.44203)"
       id="path3771"
       style="fill:#00569c;fill-opacity:1;stroke:#005a9c;stroke-opacity:1" />
    <path
       d="M 27.474729,277.407 C 98.387966,232.86913 119.61118,129.3227 184.74736,125.8226 c 60.74891,3.47747 59.14761,96.34716 152.88539,143.71985"
       id="path3773"
       style="fill:none;stroke:#005a9c;stroke-width:17.79730415px;stroke-linecap:butt;stroke-linejoin:miter;stroke-opacity:1" />
    <path
       d="m 228.57144,409.50504 a 24.285715,22.857143 0 1 1 -48.57143,0 24.285715,22.857143 0 1 1 48.57143,0 z"
       transform="translate(-175.71552,-131.30391)"
       id="path3775"
       style="fill:#00569c;fill-opacity:1;stroke:#005a9c;stroke-opacity:1" />
    <path
       d="m 540.00001,433.79074 a 31.428572,21.428572 0 1 1 -62.85714,0 31.428572,21.428572 0 1 1 62.85714,0 z"
       transform="matrix(0.82613637,0,0,1,-76.036336,-159.26327)"
       id="path3777"
       style="fill:#00569c;fill-opacity:1;stroke:#005a9c;stroke-opacity:1" />
  </g>
</svg>
